<svg xmlns="http://www.w3.org/2000/svg" enable-background="new 0 0 24 24" height="24" viewBox="0 0 24 24" width="24">
  <g>
    <rect fill="none" height="24" width="24"/>
  </g>
  <g>
    <g>
      <path d="M6,11c0,3.31,2.69,6,6,6s6-2.69,6-6s-2.69-6-6-6v4l-5-5l5-5v4c4.42,0,8,3.58,8,8c0,4.42-3.58,8-8,8s-8-3.58-8-8H6z"/>
      <polygon points="13.14,15.94 13.14,11.67 13.23,11.67 15,12.3 15,12.99 13.99,12.68 13.99,15.94"/>
      <path d="M11.75,13.44v0.74c0,1.9-1.31,1.82-1.44,1.82c-0.14,0-1.44,0.09-1.44-1.82v-0.74c0-1.9,1.31-1.82,1.44-1.82 C10.45,11.62,11.75,11.53,11.75,13.44z M9.71,13.32v0.97c0,0.77,0.21,1.03,0.59,1.03c0.38,0,0.6-0.26,0.6-1.03v-0.97 c0-0.75-0.22-1.01-0.59-1.01C9.93,12.3,9.71,12.57,9.71,13.32z"/>
    </g>
  </g>
</svg>
